<svg width="1059" height="200" viewBox="0 0 1059 200" fill="none" xmlns="http://www.w3.org/2000/svg">
<path d="M364.063 1.95564C372.667 1.86269 381.233 3.1159 389.449 5.66983C396.769 7.93785 403.526 11.732 409.272 16.8021C414.905 21.8999 419.309 28.209 422.151 35.2546C425.359 43.43 426.919 52.1591 426.741 60.9397C426.994 70.9492 425.129 80.8992 421.27 90.1381C417.946 97.8462 412.863 104.669 406.429 110.059C400.021 115.288 392.608 119.145 384.648 121.392C376.044 123.846 367.133 125.06 358.185 124.998H322.058V1.95564H364.063ZM345.899 106.267H356.444C362.075 106.275 367.685 105.583 373.145 104.207C378.389 102.908 383.284 100.473 387.481 97.0719C391.91 93.3336 395.363 88.5742 397.542 83.2042C400.301 76.1157 401.596 68.5421 401.349 60.9397C401.715 55.4635 400.921 49.9719 399.019 44.8234C397.118 39.675 394.152 34.9855 390.315 31.0613C382.118 23.8553 371.428 20.1409 360.529 20.712H345.899V106.267Z" fill="#8CB808"/>
<path d="M511.116 0.00325723C519.249 -0.0775505 527.326 1.34584 534.942 4.20168C542.047 6.88065 548.48 11.081 553.791 16.5085C559.258 22.2204 563.481 29.0032 566.196 36.4291C569.333 45.1633 570.854 54.396 570.682 63.6751C570.839 72.8021 569.284 81.8777 566.098 90.4317C563.29 97.8506 558.965 104.602 553.399 110.255C547.958 115.682 541.438 119.908 534.262 122.659C526.623 125.572 518.508 127.029 510.333 126.955C502.208 127.031 494.136 125.635 486.508 122.834C479.413 120.228 472.978 116.093 467.659 110.723C462.18 105.059 457.956 98.305 455.259 90.9005C452.117 82.1674 450.595 72.9342 450.767 63.6545C450.616 54.4956 452.172 45.3887 455.357 36.8C458.159 29.3216 462.481 22.5052 468.05 16.7815C473.471 11.3024 479.997 7.04038 487.193 4.27896C494.831 1.37283 502.945 -0.0773926 511.116 0.00325723ZM476.159 63.6751C476.023 70.4171 476.945 77.1388 478.889 83.5958C480.444 88.7039 483.001 93.4514 486.41 97.5613C489.431 101.15 493.241 103.99 497.542 105.86C501.831 107.696 506.452 108.627 511.116 108.596C515.75 108.633 520.34 107.701 524.592 105.86C528.807 103.994 532.516 101.149 535.41 97.5613C538.693 93.4149 541.142 88.6726 542.623 83.5958C544.5 77.1263 545.389 70.4103 545.26 63.6751C545.392 56.8044 544.469 49.9541 542.525 43.363C540.999 38.1835 538.44 33.3664 535.004 29.2017C531.995 25.625 528.179 22.8142 523.871 21.0006C519.567 19.2262 514.952 18.3295 510.297 18.363C505.654 18.3289 501.058 19.2934 496.821 21.1912C492.615 23.119 488.912 25.9948 486.003 29.5932C482.692 33.7938 480.241 38.606 478.791 43.7545C476.934 50.228 476.05 56.9416 476.169 63.6751H476.159Z" fill="#8CB808"/>
<path d="M676.946 1.95569V21.0985H640.814V125.003H616.984V21.0985H581.83V1.95569H676.946Z" fill="#8CB808"/>
<path d="M742.761 1.95567C751.367 1.86236 759.934 3.11557 768.153 5.66987C775.473 7.93775 782.229 11.7319 787.976 16.8021C793.607 21.9013 798.01 28.2101 800.854 35.2546C804.061 43.4304 805.619 52.1595 805.439 60.9397C805.694 70.9488 803.831 80.8988 799.973 90.1381C796.65 97.8476 791.565 104.67 785.127 110.059C778.722 115.289 771.31 119.146 763.352 121.392C754.747 123.846 745.836 125.06 736.889 124.998H700.756V1.95567H742.761ZM724.597 106.267H735.148C740.777 106.275 746.385 105.583 751.843 104.207C757.095 102.913 761.996 100.479 766.2 97.0771C770.627 93.3373 774.08 88.5784 776.261 83.2094C779.02 76.1209 780.315 68.5473 780.068 60.9449C780.434 55.4687 779.639 49.9771 777.738 44.8286C775.837 39.6802 772.871 34.9907 769.034 31.0665C760.837 23.8614 750.147 20.1472 739.248 20.7172H724.597V106.267Z" fill="#F38200"/>
<path d="M889.83 0.00325723C897.963 -0.0775505 906.04 1.34584 913.655 4.20168C920.76 6.88184 927.193 11.0821 932.504 16.5085C937.968 22.222 942.19 29.0045 944.904 36.4291C948.044 45.163 949.566 54.3957 949.396 63.6751C949.554 72.8026 947.997 81.8787 944.806 90.4317C942 97.8503 937.677 104.602 932.113 110.255C926.672 115.682 920.152 119.908 912.975 122.659C905.337 125.571 897.221 127.029 889.047 126.955C880.921 127.031 872.849 125.635 865.222 122.834C858.126 120.229 851.691 116.094 846.372 110.723C840.893 105.06 836.668 98.3057 833.973 90.9005C830.831 82.1674 829.308 72.9342 829.481 63.6545C829.327 54.4954 830.883 45.388 834.071 36.8C836.873 29.3216 841.195 22.5052 846.764 16.7815C852.184 11.3013 858.71 7.0391 865.907 4.27896C873.544 1.37283 881.659 -0.0773926 889.83 0.00325723ZM854.867 63.6751C854.733 70.4174 855.656 77.1391 857.602 83.5958C859.156 88.7048 861.713 93.4527 865.124 97.5613C868.144 101.15 871.954 103.99 876.256 105.86C880.544 107.696 885.165 108.627 889.83 108.596C894.464 108.633 899.054 107.701 903.306 105.86C907.52 103.993 911.229 101.148 914.124 97.5613C917.406 93.4149 919.855 88.6726 921.336 83.5958C923.212 77.126 924.099 70.41 923.969 63.6751C924.099 56.8048 923.178 49.9549 921.238 43.363C919.708 38.1852 917.15 33.3688 913.717 29.2017C910.707 25.6261 906.892 22.8155 902.585 21.0006C898.281 19.2266 893.666 18.3299 889.011 18.363C884.368 18.3289 879.772 19.2934 875.535 21.1912C871.327 23.1176 867.624 25.9936 864.717 29.5932C861.408 33.7952 858.957 38.6069 857.505 43.7545C855.645 50.2277 854.756 56.941 854.867 63.6751Z" fill="#F38200"/>
<path d="M1055.62 1.95569V21.0985H1019.51V125.003H995.687V21.0985H960.534V1.95569H1055.62Z" fill="#F38200"/>
<path d="M131.058 58.6988C128.404 48.4637 123.669 38.8855 117.149 30.5616C110.722 22.4727 102.391 16.1013 92.9012 12.0164C80.6438 7.25919 67.5435 5.0574 54.4044 5.54615H4.90932C3.60729 5.54615 2.35859 6.06338 1.43791 6.98406C0.517231 7.90474 0 9.15344 0 10.4555V176.178C0.00136531 177.479 0.519196 178.726 1.43973 179.646C2.36026 180.565 3.60818 181.082 4.90932 181.082H54.425C65.3643 180.897 76.2329 179.287 86.7555 176.291C95.9193 173.715 104.309 168.924 111.184 162.341C118.948 155.094 125.018 146.223 128.961 136.362C133.821 122.344 135.995 107.537 135.37 92.7138C135.434 81.2352 133.984 69.7982 131.058 58.6988ZM67.6849 113.788C63.6345 113.785 59.676 112.581 56.3098 110.329C52.9436 108.076 50.3207 104.877 48.7728 101.134C47.225 97.3908 46.8215 93.273 47.6136 89.3008C48.4057 85.3287 50.3576 81.6806 53.2227 78.8177C56.0878 75.9547 59.7374 74.0055 63.7101 73.2165C67.6828 72.4274 71.8003 72.8339 75.5421 74.3846C79.2838 75.9353 82.4817 78.5606 84.7317 81.9285C86.9816 85.2965 88.1825 89.2558 88.1825 93.3062C88.1825 95.9972 87.6522 98.6619 86.6219 101.148C85.5916 103.634 84.0815 105.893 82.1779 107.795C80.2743 109.697 78.0146 111.205 75.5278 112.234C73.041 113.262 70.3759 113.79 67.6849 113.788Z" fill="#8CB808"/>
<path d="M243.339 5.53587H193.818C180.681 5.04426 167.583 7.24254 155.326 11.9958C145.837 16.0808 137.506 22.4521 131.079 30.541C130.63 31.1077 130.254 31.7361 129.822 32.3131C134.615 39.7347 138.204 47.8681 140.454 56.4116C143.569 68.236 145.112 80.4193 145.044 92.6468C145.71 108.44 143.394 124.218 138.218 139.154C136.011 144.546 133.238 149.689 129.945 154.495C132.112 157.281 134.492 159.894 137.065 162.31C143.938 168.896 152.328 173.687 161.493 176.26C172.014 179.256 182.88 180.866 193.818 181.051H243.339C244.64 181.051 245.887 180.534 246.807 179.614C247.726 178.695 248.243 177.447 248.243 176.147V10.4504C248.244 9.80565 248.117 9.16713 247.871 8.57124C247.625 7.97535 247.264 7.43378 246.809 6.97743C246.353 6.52108 245.813 6.15889 245.217 5.91155C244.622 5.6642 243.984 5.53655 243.339 5.53587ZM186.251 113.788C182.2 113.788 178.24 112.587 174.871 110.336C171.503 108.086 168.878 104.887 167.328 101.144C165.777 97.4018 165.372 93.2835 166.162 89.3104C166.952 85.3372 168.903 81.6876 171.768 78.8232C174.632 75.9587 178.282 74.0079 182.255 73.2176C186.228 72.4273 190.346 72.8329 194.089 74.3832C197.831 75.9334 201.03 78.5587 203.281 81.9269C205.531 85.2952 206.733 89.2552 206.733 93.3062C206.733 98.7384 204.575 103.948 200.734 107.789C196.892 111.63 191.683 113.788 186.251 113.788Z" fill="#F38200"/>
<path d="M576.102 160.1C578.259 160.074 580.412 160.279 582.526 160.713C584.273 161.08 585.975 161.632 587.605 162.361L585.828 168.059C584.428 167.37 582.951 166.851 581.428 166.513C579.959 166.194 578.46 166.032 576.957 166.029C575.343 166.021 573.74 166.29 572.217 166.823C570.741 167.339 569.409 168.201 568.333 169.336C567.156 170.589 566.258 172.078 565.701 173.705C565 175.762 564.667 177.926 564.717 180.098C564.477 183.757 565.527 187.384 567.684 190.349C568.724 191.561 570.03 192.517 571.5 193.142C572.97 193.768 574.564 194.046 576.158 193.955C577.775 194.026 579.392 193.818 580.939 193.342V184.332H574.577V178.089H588.944V197.608C587.153 198.368 585.289 198.942 583.381 199.323C580.984 199.799 578.545 200.025 576.102 199.998C573.385 200.021 570.685 199.587 568.112 198.715C565.704 197.912 563.5 196.596 561.652 194.857C559.804 193.118 558.355 190.998 557.407 188.644C556.327 185.93 555.802 183.028 555.862 180.108C555.808 177.17 556.333 174.25 557.407 171.516C558.357 169.143 559.807 167.004 561.657 165.241C563.5 163.538 565.677 162.236 568.05 161.419C570.639 160.521 573.362 160.075 576.102 160.1Z" fill="#10677F"/>
<path d="M608.479 160.78H616.86V192.719H632.397V199.323H608.479V160.78Z" fill="#10677F"/>
<path d="M665.861 160.1C668.452 160.073 671.025 160.531 673.449 161.45C675.702 162.299 677.747 163.622 679.445 165.329C681.182 167.122 682.524 169.26 683.386 171.603C684.392 174.324 684.883 177.208 684.833 180.108C684.88 182.954 684.38 185.781 683.36 188.438C682.452 190.769 681.078 192.89 679.321 194.671C677.589 196.396 675.517 197.742 673.237 198.622C670.806 199.554 668.222 200.021 665.618 199.998C663.03 200.024 660.459 199.579 658.03 198.684C655.774 197.853 653.728 196.537 652.034 194.831C650.306 193.041 648.961 190.916 648.083 188.587C647.084 185.874 646.598 182.999 646.651 180.108C646.605 177.256 647.102 174.42 648.114 171.753C649.024 169.405 650.399 167.265 652.158 165.463C653.877 163.714 655.952 162.354 658.242 161.475C660.673 160.543 663.257 160.077 665.861 160.1ZM655.522 180.108C655.484 182.128 655.764 184.141 656.351 186.074C656.816 187.612 657.573 189.046 658.581 190.298C659.46 191.382 660.582 192.241 661.858 192.807C663.118 193.363 664.483 193.645 665.861 193.636C667.221 193.641 668.568 193.358 669.812 192.807C671.071 192.246 672.173 191.385 673.021 190.298C673.991 189.035 674.716 187.603 675.159 186.074C675.724 184.137 675.993 182.126 675.957 180.108C675.996 178.04 675.718 175.978 675.133 173.993C674.67 172.447 673.912 171.004 672.902 169.743C672.027 168.665 670.903 167.815 669.626 167.266C668.358 166.73 666.995 166.458 665.618 166.467C664.244 166.457 662.885 166.749 661.636 167.322C660.392 167.908 659.303 168.778 658.458 169.862C657.484 171.133 656.759 172.577 656.32 174.117C655.751 176.062 655.482 178.082 655.522 180.108Z" fill="#10677F"/>
<path d="M717.504 160.78C720.924 160.592 724.313 161.513 727.168 163.407C728.326 164.252 729.256 165.37 729.876 166.661C730.497 167.953 730.787 169.378 730.722 170.81C730.738 171.905 730.516 172.991 730.073 173.993C729.676 174.893 729.116 175.71 728.42 176.404C727.757 177.079 726.994 177.647 726.158 178.089C725.358 178.525 724.504 178.856 723.619 179.073C724.733 179.272 725.815 179.618 726.838 180.103C727.818 180.561 728.708 181.191 729.465 181.963C730.233 182.767 730.835 183.714 731.238 184.75C731.686 185.934 731.903 187.193 731.876 188.459C731.896 189.977 731.542 191.477 730.846 192.827C730.125 194.185 729.111 195.365 727.879 196.284C726.485 197.315 724.913 198.082 723.242 198.545C721.284 199.099 719.256 199.368 717.22 199.344H703.755V160.78H717.504ZM712.121 176.198H716.092C717.645 176.281 719.182 175.86 720.476 174.998C721.017 174.581 721.447 174.037 721.728 173.414C722.009 172.792 722.133 172.11 722.089 171.428C722.129 170.809 722.013 170.19 721.752 169.628C721.491 169.065 721.093 168.577 720.595 168.208C719.301 167.418 717.796 167.045 716.283 167.142H712.121V176.198ZM712.121 192.956H716.092C717.886 193.029 719.666 192.616 721.244 191.761C721.929 191.329 722.482 190.715 722.838 189.987C723.195 189.259 723.342 188.446 723.263 187.64C723.321 186.844 723.15 186.049 722.771 185.348C722.391 184.647 721.818 184.069 721.12 183.683C719.497 182.85 717.689 182.442 715.866 182.498H712.131L712.121 192.956Z" fill="#10677F"/>
<path d="M760.827 160.78H769.513L783.772 199.323H774.911L771.903 190.447H758.2L755.202 199.323H746.445L760.827 160.78ZM760.091 184.27H769.878L768.106 179.119C767.529 177.527 766.994 175.92 766.515 174.308C766.036 172.695 765.546 171.083 765.098 169.45H764.98C764.521 170.995 764.042 172.577 763.506 174.189C762.97 175.802 762.43 177.445 761.853 179.119L760.091 184.27Z" fill="#10677F"/>
<path d="M800.901 160.78H809.287V192.719H824.839V199.323H800.916L800.901 160.78Z" fill="#10677F"/>
<path d="M502.106 179.928H319.405V185.079H502.106V179.928Z" fill="#10677F"/>
<path d="M1058.22 179.928H875.519V185.079H1058.22V179.928Z" fill="#10677F"/>
</svg>
