<svg width="20" height="20" viewBox="0 0 20 20" fill="none" xmlns="http://www.w3.org/2000/svg">
<path d="M15.25 4.75828C15.1729 4.68102 15.0813 4.61973 14.9805 4.57792C14.8797 4.5361 14.7716 4.51457 14.6625 4.51457C14.5534 4.51457 14.4453 4.5361 14.3445 4.57792C14.2437 4.61973 14.1521 4.68102 14.075 4.75828L10 8.82494L5.925 4.74994C5.84785 4.67279 5.75626 4.61159 5.65546 4.56984C5.55465 4.52808 5.44661 4.50659 5.3375 4.50659C5.22839 4.50659 5.12035 4.52808 5.01955 4.56984C4.91875 4.61159 4.82715 4.67279 4.75 4.74994C4.67285 4.82709 4.61165 4.91869 4.5699 5.01949C4.52814 5.12029 4.50665 5.22833 4.50665 5.33744C4.50665 5.44655 4.52814 5.55459 4.5699 5.65539C4.61165 5.7562 4.67285 5.84779 4.75 5.92494L8.825 9.99994L4.75 14.0749C4.67285 14.1521 4.61165 14.2437 4.5699 14.3445C4.52814 14.4453 4.50665 14.5533 4.50665 14.6624C4.50665 14.7715 4.52814 14.8796 4.5699 14.9804C4.61165 15.0812 4.67285 15.1728 4.75 15.2499C4.82715 15.3271 4.91875 15.3883 5.01955 15.43C5.12035 15.4718 5.22839 15.4933 5.3375 15.4933C5.44661 15.4933 5.55465 15.4718 5.65546 15.43C5.75626 15.3883 5.84785 15.3271 5.925 15.2499L10 11.1749L14.075 15.2499C14.1522 15.3271 14.2437 15.3883 14.3445 15.43C14.4454 15.4718 14.5534 15.4933 14.6625 15.4933C14.7716 15.4933 14.8797 15.4718 14.9805 15.43C15.0813 15.3883 15.1728 15.3271 15.25 15.2499C15.3272 15.1728 15.3884 15.0812 15.4301 14.9804C15.4719 14.8796 15.4934 14.7715 15.4934 14.6624C15.4934 14.5533 15.4719 14.4453 15.4301 14.3445C15.3884 14.2437 15.3272 14.1521 15.25 14.0749L11.175 9.99994L15.25 5.92494C15.5667 5.60828 15.5667 5.07494 15.25 4.75828Z" fill="white" fill-opacity="0.5"/>
</svg>
