<svg width="18" height="18" viewBox="0 0 18 18" fill="none" xmlns="http://www.w3.org/2000/svg">
<g clip-path="url(#clip0_3813_22709)">
<path d="M8.99998 1.125C9.4992 1.125 9.95975 1.38867 10.2129 1.82109L17.8066 14.7586C18.0633 15.1945 18.0633 15.7324 17.8137 16.1684C17.564 16.6043 17.0965 16.875 16.5937 16.875H1.40623C0.9035 16.875 0.435922 16.6043 0.186312 16.1684C-0.0632971 15.7324 -0.0597815 15.191 0.193343 14.7586L7.78709 1.82109C8.04022 1.38867 8.50077 1.125 8.99998 1.125ZM8.99998 5.625C8.53241 5.625 8.15623 6.00117 8.15623 6.46875V10.4062C8.15623 10.8738 8.53241 11.25 8.99998 11.25C9.46756 11.25 9.84373 10.8738 9.84373 10.4062V6.46875C9.84373 6.00117 9.46756 5.625 8.99998 5.625ZM10.125 13.5C10.125 13.2016 10.0065 12.9155 9.79548 12.7045C9.5845 12.4935 9.29835 12.375 8.99998 12.375C8.70162 12.375 8.41547 12.4935 8.20449 12.7045C7.99351 12.9155 7.87498 13.2016 7.87498 13.5C7.87498 13.7984 7.99351 14.0845 8.20449 14.2955C8.41547 14.5065 8.70162 14.625 8.99998 14.625C9.29835 14.625 9.5845 14.5065 9.79548 14.2955C10.0065 14.0845 10.125 13.7984 10.125 13.5Z" fill="#EB5757"/>
</g>
<defs>
<clipPath id="clip0_3813_22709">
<rect width="18" height="18" fill="white"/>
</clipPath>
</defs>
</svg>
