<svg width="80" height="81" viewBox="0 0 80 81" fill="none" xmlns="http://www.w3.org/2000/svg">
<g clip-path="url(#clip0_3815_22985)">
<rect y="0.100098" width="80" height="80" rx="40" fill="white"/>
<path d="M27.3438 27.4438C28.8125 25.9907 31.1875 25.9907 32.5156 27.4438L39.8594 34.8032L47.3438 27.4438C48.8125 25.9907 51.1875 25.9907 52.5156 27.4438C54.1094 28.9126 54.1094 31.2876 52.5156 32.6157L45.2969 39.9595L52.5156 47.4438C54.1094 48.9126 54.1094 51.2876 52.5156 52.6157C51.1875 54.2095 48.8125 54.2095 47.3438 52.6157L39.8594 45.397L32.5156 52.6157C31.1875 54.2095 28.8125 54.2095 27.3438 52.6157C25.8906 51.2876 25.8906 48.9126 27.3438 47.4438L34.7031 39.9595L27.3438 32.6157C25.8906 31.2876 25.8906 28.9126 27.3438 27.4438ZM80 40.1001C80 62.1938 62.0938 80.1001 40 80.1001C17.9062 80.1001 0 62.1938 0 40.1001C0 18.0063 17.9062 0.100098 40 0.100098C62.0938 0.100098 80 18.0063 80 40.1001ZM40 7.6001C22.0469 7.6001 7.5 22.147 7.5 40.1001C7.5 58.0532 22.0469 72.6001 40 72.6001C57.9531 72.6001 72.5 58.0532 72.5 40.1001C72.5 22.147 57.9531 7.6001 40 7.6001Z" fill="#EB5757"/>
</g>
<defs>
<clipPath id="clip0_3815_22985">
<rect y="0.100098" width="80" height="80" rx="40" fill="white"/>
</clipPath>
</defs>
</svg>
