<svg width="80" height="81" viewBox="0 0 80 81" fill="none" xmlns="http://www.w3.org/2000/svg">
<rect x="3.75" y="3.8501" width="72.5" height="72.5" rx="36.25" fill="white"/>
<rect x="3.75" y="3.8501" width="72.5" height="72.5" rx="36.25" stroke="#EB5757" stroke-width="7.5"/>
<path d="M40 49.4751C41.7275 49.4751 43.125 48.0767 43.125 46.438V21.3511C43.125 19.6255 41.7275 18.2251 40 18.2251C38.2725 18.2251 36.875 19.6255 36.875 21.3511V46.2632C36.875 48.0786 38.2725 49.4751 40 49.4751ZM40 54.1626C37.8428 54.1626 36.0938 55.9116 36.0938 58.0688C36.0938 60.2261 37.8428 61.8872 40 61.8872C42.1572 61.8872 43.9062 60.1392 43.9062 58.0688C43.9062 55.9985 42.1572 54.1626 40 54.1626Z" fill="#EB5757"/>
</svg>
