<svg width="80" height="81" viewBox="0 0 80 81" fill="none" xmlns="http://www.w3.org/2000/svg">
<g clip-path="url(#clip0_3815_22966)">
<rect y="0.100098" width="80" height="80" rx="40" fill="white"/>
<path d="M38.0938 53.1938C36.3906 54.897 33.6094 54.897 31.9062 53.1938L21.9062 43.1938C20.2031 41.4907 20.2031 38.7095 21.9062 37.0063C23.6094 35.3032 26.3906 35.3032 28.0938 37.0063L35 43.9126L51.9062 27.0063C53.6094 25.3032 56.3906 25.3032 58.0938 27.0063C59.7969 28.7095 59.7969 31.4907 58.0938 33.1938L38.0938 53.1938ZM80 40.1001C80 62.1938 62.0938 80.1001 40 80.1001C17.9062 80.1001 0 62.1938 0 40.1001C0 18.0063 17.9062 0.100098 40 0.100098C62.0938 0.100098 80 18.0063 80 40.1001ZM40 7.6001C22.0469 7.6001 7.5 22.147 7.5 40.1001C7.5 58.0532 22.0469 72.6001 40 72.6001C57.9531 72.6001 72.5 58.0532 72.5 40.1001C72.5 22.147 57.9531 7.6001 40 7.6001Z" fill="#27AE60"/>
</g>
<defs>
<clipPath id="clip0_3815_22966">
<rect y="0.100098" width="80" height="80" rx="40" fill="white"/>
</clipPath>
</defs>
</svg>
