<svg width="20" height="21" viewBox="0 0 20 21" fill="none" xmlns="http://www.w3.org/2000/svg">
<path d="M15.25 4.85837C15.1729 4.78112 15.0813 4.71983 14.9805 4.67801C14.8797 4.63619 14.7716 4.61467 14.6625 4.61467C14.5534 4.61467 14.4453 4.63619 14.3445 4.67801C14.2437 4.71983 14.1521 4.78112 14.075 4.85837L10 8.92504L5.925 4.85004C5.84785 4.77289 5.75626 4.71169 5.65546 4.66993C5.55465 4.62818 5.44661 4.60669 5.3375 4.60669C5.22839 4.60669 5.12035 4.62818 5.01955 4.66993C4.91875 4.71169 4.82715 4.77289 4.75 4.85004C4.67285 4.92719 4.61165 5.01878 4.5699 5.11959C4.52814 5.22039 4.50665 5.32843 4.50665 5.43754C4.50665 5.54665 4.52814 5.65469 4.5699 5.75549C4.61165 5.8563 4.67285 5.94789 4.75 6.02504L8.825 10.1L4.75 14.175C4.67285 14.2522 4.61165 14.3438 4.5699 14.4446C4.52814 14.5454 4.50665 14.6534 4.50665 14.7625C4.50665 14.8716 4.52814 14.9797 4.5699 15.0805C4.61165 15.1813 4.67285 15.2729 4.75 15.35C4.82715 15.4272 4.91875 15.4884 5.01955 15.5301C5.12035 15.5719 5.22839 15.5934 5.3375 15.5934C5.44661 15.5934 5.55465 15.5719 5.65546 15.5301C5.75626 15.4884 5.84785 15.4272 5.925 15.35L10 11.275L14.075 15.35C14.1522 15.4272 14.2437 15.4884 14.3445 15.5301C14.4454 15.5719 14.5534 15.5934 14.6625 15.5934C14.7716 15.5934 14.8797 15.5719 14.9805 15.5301C15.0813 15.4884 15.1728 15.4272 15.25 15.35C15.3272 15.2729 15.3884 15.1813 15.4301 15.0805C15.4719 14.9797 15.4934 14.8716 15.4934 14.7625C15.4934 14.6534 15.4719 14.5454 15.4301 14.4446C15.3884 14.3438 15.3272 14.2522 15.25 14.175L11.175 10.1L15.25 6.02504C15.5667 5.70837 15.5667 5.17504 15.25 4.85837Z" fill="#BDBDBD"/>
</svg>
