<svg width="19" height="18" viewBox="0 0 19 18" fill="none" xmlns="http://www.w3.org/2000/svg">
<path d="M4.75 0C3.50898 0 2.5 1.00898 2.5 2.25V15.75C2.5 16.991 3.50898 18 4.75 18H13.75C14.991 18 16 16.991 16 15.75V5.625H11.5C10.8777 5.625 10.375 5.12227 10.375 4.5V0H4.75ZM11.5 0V4.5H16L11.5 0ZM10.0938 14.3438C10.0938 14.8113 9.71758 15.1875 9.25 15.1875C8.78242 15.1875 8.40625 14.8113 8.40625 14.3438V10.7543L7.31641 11.8441C6.98594 12.1746 6.45156 12.1746 6.12461 11.8441C5.79766 11.5137 5.79414 10.9793 6.12461 10.6523L8.65586 8.12109C8.98633 7.79063 9.5207 7.79063 9.84766 8.12109L12.3789 10.6523C12.7094 10.9828 12.7094 11.5172 12.3789 11.8441C12.0484 12.1711 11.5141 12.1746 11.1871 11.8441L10.0973 10.7543V14.3438H10.0938Z" fill="#22798C"/>
</svg>
